<?xml version="1.0" encoding="UTF-8" standalone="no"?>
<!-- Creator: CorelDRAW X7 -->

<svg
   xmlns:dc="http://purl.org/dc/elements/1.1/"
   xmlns:cc="http://creativecommons.org/ns#"
   xmlns:rdf="http://www.w3.org/1999/02/22-rdf-syntax-ns#"
   xmlns:svg="http://www.w3.org/2000/svg"
   xmlns="http://www.w3.org/2000/svg"
   xmlns:sodipodi="http://sodipodi.sourceforge.net/DTD/sodipodi-0.dtd"
   xmlns:inkscape="http://www.inkscape.org/namespaces/inkscape"
   xml:space="preserve"
   width="1372px"
   height="1399px"
   version="1.1"
   style="shape-rendering:geometricPrecision; text-rendering:geometricPrecision; image-rendering:optimizeQuality; fill-rule:evenodd; clip-rule:evenodd"
   viewBox="0 0 2679 2732"
   id="svg3367"
   inkscape:version="0.91 r13725"
   sodipodi:docname="icon.svg"><metadata
     id="metadata3384"><rdf:RDF><cc:Work
         rdf:about=""><dc:format>image/svg+xml</dc:format><dc:type
           rdf:resource="http://purl.org/dc/dcmitype/StillImage" /></cc:Work></rdf:RDF></metadata><sodipodi:namedview
     pagecolor="#ffffff"
     bordercolor="#666666"
     borderopacity="1"
     objecttolerance="10"
     gridtolerance="10"
     guidetolerance="10"
     inkscape:pageopacity="0"
     inkscape:pageshadow="2"
     inkscape:window-width="1432"
     inkscape:window-height="874"
     id="namedview3382"
     showgrid="false"
     inkscape:zoom="0.16869192"
     inkscape:cx="-43.139831"
     inkscape:cy="699.5"
     inkscape:window-x="0"
     inkscape:window-y="0"
     inkscape:window-maximized="0"
     inkscape:current-layer="Layer_x0020_1" /><defs
     id="defs3369"><style
       type="text/css"
       id="style3371"><![CDATA[
    .fil0 {fill:#2B2A29}
   ]]></style></defs><g
     id="Layer_x0020_1"
     transform="translate(23.152543,-11.576271)"><metadata
       id="CorelCorpID_0Corel-Layer" /><g
       id="_415214800848"
       transform="translate(-34.728815,1.2021264e-6)"
       style="fill:none"><path
         class="fil0"
         d="M 2114,472 174,2094 c 1,3 3,5 4,8 -15,7 -30,15 -43,25 -72,50 -120,133 -120,228 0,153 124,277 277,277 85,0 160,-38 211,-97 l 0,0 c 12,-14 22,-29 31,-44 1,1 3,2 4,3 L 2202,555 2679,0 2114,472 Z"
         id="path3376"
         inkscape:connector-curvature="0"
         style="fill:none" /><path
         class="fil0"
         d="M 2392,805 749,2615 c 162,75 343,117 534,117 708,0 1282,-575 1282,-1283 0,-235 -63,-454 -173,-644 z"
         id="path3378"
         inkscape:connector-curvature="0"
         style="fill:none" /><path
         class="fil0"
         d="M 78,1890 1924,338 C 1735,229 1516,167 1283,167 574,167 0,741 0,1449 c 0,155 27,304 78,441 z"
         id="path3380"
         inkscape:connector-curvature="0"
         style="fill:none" /></g><path
       style="fill:none;fill-opacity:1"
       id="path3386"
       ry="428.32205"
       rx="601.96613"
       cy="787.18646"
       cx="833.35474" /><path
       sodipodi:type="star"
       style="fill:#000000;fill-opacity:1"
       id="path3400"
       sodipodi:sides="5"
       sodipodi:cx="1354.2869"
       sodipodi:cy="1319.6949"
       sodipodi:r1="1351.8489"
       sodipodi:r2="675.92444"
       sodipodi:arg1="0.43300586"
       sodipodi:arg2="1.0613244"
       inkscape:flatsided="false"
       inkscape:rounded="0"
       inkscape:randomized="0"
       d="m 2581.3717,1886.9323 -897.4255,22.8462 -489.944,752.2295 L 894.95445,1815.5655 28.140642,1582.0527 740.74445,1036.0763 694.96811,139.52794 1434.4292,648.53844 2272.9517,327.95389 2017.36,1188.5161 Z"
       inkscape:transform-center-x="49.530687"
       inkscape:transform-center-y="81.072998" /><path
       sodipodi:type="star"
       style="fill:#000000;fill-opacity:1"
       id="path3402"
       sodipodi:sides="5"
       sodipodi:cx="1331.1344"
       sodipodi:cy="1435.4576"
       sodipodi:r1="1342.548"
       sodipodi:r2="671.27405"
       sodipodi:arg1="1.0569978"
       sodipodi:arg2="1.6853163"
       inkscape:flatsided="false"
       inkscape:rounded="0"
       inkscape:randomized="0"
       d="M 1990.9818,2604.661 1254.428,2102.3347 423.05997,2424.3135 673.19308,1568.5819 110.06617,877.40081 1001.2107,850.85592 1484.5472,101.7037 l 300.6244,839.32596 861.8453,228.17954 -705.3483,545.2769 z"
       inkscape:transform-center-x="-47.407137"
       inkscape:transform-center-y="-82.275311" /></g></svg>