<?xml version="1.0" encoding="utf-8"?>
<!-- Generator: Adobe Illustrator 16.0.0, SVG Export Plug-In . SVG Version: 6.00 Build 0)  -->
<!DOCTYPE svg PUBLIC "-//W3C//DTD SVG 1.1//EN" "http://www.w3.org/Graphics/SVG/1.1/DTD/svg11.dtd">
<svg version="1.1" id="Layer_1" xmlns="http://www.w3.org/2000/svg" xmlns:xlink="http://www.w3.org/1999/xlink" x="0px" y="0px"
	 width="256.5px" height="256.5px" viewBox="0 -31.25 256.5 256.5" enable-background="new 0 -31.25 256.5 256.5"
	 xml:space="preserve">
<path fill="#FFFFFF" d="M158.029,132.15"/>
<path d="M212.923,141.906c-8.636-3.053-9.192-3.382-16.014-8.187c-4.461-4.019-3.396-3.084-4.903-4.588
	c-5.128-5.084-5.412-14.468-0.706-19.92c6.411-7.602,17.249-9.846,23.025-18.104c-10.353-0.929-20.898,2.029-31.036-0.981
	c-5.947-1.653-9.985-7.73-10.158-13.743c0.734-9.705,7.298-17.866,7.924-27.614c-8.439,3.821-14.595,11.195-22.939,15.124
	c-6.757,2.947-15.501,1.199-19.668-5.171c-5.354-8.053-5.323-18.384-10.268-26.696c-3.777,6.564-4.965,14.099-7.469,21.148
	c-1.631,4.75-4.988,9.154-9.771,11.021c-5.559,2.212-12.002,0.82-16.829-2.494c-6.368-4.265-12.165-9.359-18.708-13.386
	c-0.127,10.331,7.677,18.783,7.699,29.092c-0.54,7.189-6.79,12.9-13.84,13.527c-9.328,0.637-18.688-0.173-28.035,0.171
	c5.808,6.693,14.066,10.255,20.951,15.588c4.858,3.737,7.546,10.495,5.356,16.421c-1.975,5.667-5.851,9.53-10.6,12.672
	c-5.506,3.477-5.094,3.44-11.983,6.006c-11.362,4.249-32.591,5.405-44.897,9.442c4.037,0.291,80.629-12.383,128.224-11.4
	c57.566,0.27,115.809,9.893,128.223,11.402C247.063,148.742,221.811,144.258,212.923,141.906z M172.514,136.726
	c-1.025,2.657-4.296,1.62-6.488,2.128c1.264-6.778,4.114-13.321,3.803-20.348c0.539-21.333-18.041-41.13-39.437-41.605
	c-11.183-0.799-22.474,3.487-30.732,10.968c-8.356,8.237-13.894,19.862-13.15,31.759c-0.16,6.554,2.376,12.695,4.027,18.936
	c-2.029,0.053-4.059,0.097-6.089,0.139c-4.557-9.477-5.526-20.326-3.594-30.604c3.66-15.329,14.962-28.866,29.774-34.5
	c11.086-4.566,24.019-4.534,35.083,0.076c15.782,5.958,27.452,20.953,30.237,37.47C176.789,119.734,176.529,128.89,172.514,136.726z
	"/>
</svg>
